<?xml version="1.0" standalone="no"?>
<!DOCTYPE svg PUBLIC "-//W3C//DTD SVG 20010904//EN"
 "http://www.w3.org/TR/2001/REC-SVG-20010904/DTD/svg10.dtd">
<svg version="1.0" xmlns="http://www.w3.org/2000/svg"
 width="1080.000000pt" height="1080.000000pt" viewBox="0 0 1080.000000 1080.000000"
 preserveAspectRatio="xMidYMid meet">
<metadata>
Created by potrace 1.14, written by Peter Selinger 2001-2017
</metadata>
<g transform="translate(0.000000,1080.000000) scale(0.100000,-0.100000)"
fill="#000000" stroke="none">
<path d="M5244 10179 c-3 -5 -9 -7 -14 -4 -13 8 -19 -22 -7 -35 8 -8 4 -8 -11
1 -21 13 -25 12 -42 -11 -11 -14 -20 -30 -20 -35 0 -17 -52 -31 -90 -25 -54 8
-92 0 -85 -18 4 -12 3 -12 -8 -3 -12 9 -14 6 -12 -14 4 -29 5 -29 -29 -12 -14
8 -23 17 -19 21 4 4 0 4 -9 1 -17 -7 -18 -29 -3 -42 4 -4 6 -3 2 2 -3 6 4 12
16 12 16 2 18 0 8 -7 -21 -12 -22 -40 -3 -40 15 0 15 -2 2 -10 -9 -6 -17 -5
-21 1 -3 6 -10 10 -14 10 -8 -1 -13 12 -17 50 -1 10 -9 14 -20 11 -21 -5 -24
-20 -15 -77 1 -5 11 -16 22 -23 15 -10 16 -12 3 -8 -10 3 -20 1 -23 -5 -4 -5
-1 -8 6 -7 15 4 22 -49 8 -57 -5 -4 -7 -12 -3 -18 3 -7 -2 -3 -10 7 -9 11 -16
15 -16 8 0 -9 -6 -9 -25 0 -14 6 -25 18 -25 25 0 8 -4 12 -9 9 -14 -9 -34 22
-28 44 6 23 1 25 -18 6 -11 -10 -11 -16 -2 -25 9 -9 8 -11 -5 -6 -17 7 -25
-10 -18 -40 1 -5 3 -17 4 -24 2 -8 8 -17 14 -19 6 -2 8 -11 5 -20 -6 -15 -5
-16 12 -2 10 8 16 10 12 3 -4 -6 -3 -13 3 -15 6 -2 12 -13 15 -26 2 -13 0 -20
-6 -17 -5 4 -9 2 -9 -3 0 -12 -87 -15 -95 -2 -5 8 -11 8 -21 -1 -10 -8 -14 -8
-14 0 0 6 -5 11 -11 11 -5 0 -7 -6 -3 -12 6 -10 4 -10 -8 0 -13 10 -19 10 -32
-3 -17 -17 -22 -30 -8 -21 9 5 48 -35 45 -46 -2 -4 6 -5 17 -3 11 2 20 0 20
-4 0 -4 7 -8 15 -9 8 -1 22 -3 30 -4 8 -1 13 -3 10 -6 -2 -3 1 -14 7 -26 10
-19 10 -20 -6 -7 -9 8 -16 10 -15 5 4 -17 -13 -44 -27 -44 -12 0 -12 -3 -2
-14 11 -13 15 -13 26 2 6 8 12 11 12 6 0 -6 -11 -20 -25 -32 -14 -12 -25 -29
-25 -38 0 -8 -4 -12 -10 -9 -5 3 -10 1 -10 -4 0 -6 5 -11 12 -11 6 0 3 -9 -7
-20 -10 -11 -15 -20 -11 -20 4 0 2 -9 -4 -20 -6 -12 -16 -18 -23 -14 -9 5 -9
4 0 -6 12 -13 6 -43 -7 -35 -5 3 -7 -6 -4 -20 3 -16 0 -25 -8 -25 -8 0 -9 -3
-3 -8 13 -9 15 -42 3 -42 -6 0 -5 -6 2 -15 7 -9 8 -15 2 -15 -5 0 -8 -10 -4
-22 3 -13 1 -19 -6 -15 -6 4 -9 0 -8 -10 2 -10 -2 -21 -8 -25 -7 -5 -7 -8 3
-8 11 0 11 -3 1 -15 -7 -8 -10 -24 -7 -36 4 -16 3 -18 -8 -9 -11 9 -13 7 -9
-14 2 -14 1 -26 -4 -26 -4 0 -9 -10 -10 -22 -1 -13 -3 -43 -5 -68 -2 -25 -5
-50 -8 -55 -3 -6 -4 -34 -4 -62 1 -33 -2 -53 -9 -53 -7 0 -7 -3 -1 -8 13 -9
15 -52 3 -52 -5 0 -6 -6 -1 -12 13 -23 14 -91 1 -100 -9 -5 -7 -8 7 -8 11 0
16 -4 10 -8 -5 -4 -10 -38 -10 -77 0 -69 0 -70 -25 -67 -14 2 -31 9 -37 14 -9
7 -13 7 -13 0 0 -5 -10 -10 -22 -9 -35 1 -52 -6 -68 -28 -23 -32 -25 -47 -14
-120 4 -27 8 -60 8 -72 1 -13 4 -23 7 -23 10 0 5 -34 -6 -42 -6 -5 -5 -8 4 -8
8 0 11 -7 8 -20 -3 -11 -1 -20 5 -20 5 0 7 -4 4 -8 -6 -11 23 -112 33 -112 3
0 6 -12 5 -27 0 -15 5 -47 12 -70 7 -24 10 -43 6 -43 -4 0 -2 -4 3 -8 14 -10
45 -103 32 -95 -7 4 -8 0 -2 -13 4 -10 8 -31 8 -46 -1 -16 3 -28 7 -28 5 0 7
-11 6 -25 -2 -13 0 -22 4 -20 4 2 16 -5 28 -15 23 -22 37 -26 26 -8 -4 7 -3 8
5 4 6 -4 9 -12 6 -17 -4 -5 -2 -9 3 -9 4 0 9 -18 9 -40 0 -22 -3 -38 -7 -35
-5 3 0 -12 10 -32 10 -21 16 -41 13 -46 -2 -4 2 -18 10 -31 12 -17 13 -26 5
-34 -8 -8 -7 -13 5 -17 9 -4 13 -13 10 -21 -3 -8 -1 -14 4 -14 5 0 10 -10 10
-22 1 -13 7 -24 13 -26 5 -2 10 -13 10 -23 0 -11 5 -17 10 -14 6 3 10 -3 10
-15 0 -12 5 -18 10 -15 6 3 10 1 10 -5 0 -6 4 -9 9 -6 4 3 7 -6 5 -20 -2 -18
1 -22 9 -15 9 6 12 2 13 -14 2 -28 27 -58 40 -47 5 4 2 -2 -6 -12 -8 -11 -10
-17 -4 -13 7 4 23 -2 36 -13 14 -11 29 -16 34 -12 5 4 3 0 -3 -8 -10 -13 -8
-18 8 -28 10 -7 19 -17 19 -23 0 -5 11 -22 24 -36 14 -15 23 -30 20 -35 -3 -4
-1 -8 5 -8 15 0 51 -42 45 -52 -3 -4 4 -8 16 -8 12 0 19 -4 16 -8 -3 -5 6 -15
19 -22 13 -7 22 -16 20 -20 -2 -4 7 -12 21 -19 16 -7 22 -16 18 -24 -5 -7 0
-6 12 3 10 8 16 10 12 6 -9 -10 11 -38 21 -31 4 2 7 -5 6 -17 -1 -12 -22 -40
-47 -62 -43 -39 -106 -126 -91 -126 4 0 -2 -6 -12 -14 -11 -8 -23 -12 -26 -10
-4 2 -12 -3 -19 -11 -7 -8 -19 -15 -26 -15 -8 0 -14 -4 -14 -8 0 -13 -228
-124 -240 -117 -5 3 -10 1 -10 -4 0 -6 -3 -10 -7 -10 -19 3 -46 -2 -40 -7 3
-3 -2 -15 -11 -27 -28 -34 -65 -67 -70 -62 -3 2 -17 -4 -32 -15 -16 -11 -40
-20 -54 -20 -32 0 -99 -58 -116 -100 -7 -17 -17 -30 -23 -30 -6 0 -8 -3 -4 -6
3 -4 -2 -23 -12 -43 -10 -20 -26 -61 -36 -91 -15 -50 -20 -74 -29 -135 -2 -11
-4 -20 -5 -20 -2 0 -9 -36 -15 -80 -2 -11 -14 -44 -28 -73 -23 -46 -26 -67
-25 -147 0 -92 0 -94 -31 -125 -18 -17 -33 -38 -33 -46 -2 -17 -6 -68 -8 -90
0 -8 -5 -13 -10 -10 -5 4 -15 -7 -23 -24 -7 -16 -16 -30 -19 -30 -3 0 -6 -6
-7 -12 0 -7 -4 -33 -7 -58 -4 -25 -7 -52 -7 -60 0 -8 -5 -31 -11 -50 -6 -19
-12 -39 -13 -45 -1 -5 -19 -57 -39 -115 -48 -139 -48 -141 -25 -192 10 -24 22
-78 26 -119 5 -61 11 -80 35 -111 16 -20 29 -43 29 -51 0 -30 78 -75 97 -56 7
7 23 -2 47 -28 20 -21 36 -41 36 -45 0 -5 4 -8 9 -8 14 0 96 -80 93 -91 -1 -6
2 -8 7 -5 5 3 14 -1 21 -9 7 -8 16 -13 20 -10 5 3 11 -3 14 -12 3 -10 19 -25
35 -35 16 -9 42 -36 57 -60 15 -23 30 -45 33 -48 3 -3 8 -14 9 -25 2 -11 7
-22 11 -25 4 -3 7 -14 8 -25 0 -42 11 -111 22 -137 6 -16 8 -28 5 -28 -3 0 2
-8 12 -17 20 -20 80 -116 76 -121 -2 -2 3 -9 11 -15 8 -7 23 -37 32 -67 10
-30 24 -64 32 -76 7 -11 10 -24 6 -27 -3 -4 0 -7 7 -7 7 0 10 -3 7 -7 -4 -3
-3 -11 2 -17 18 -21 71 -128 71 -142 0 -8 5 -14 12 -14 6 0 8 -3 5 -7 -4 -3
-3 -11 2 -17 6 -6 12 -25 15 -41 2 -17 5 -31 6 -32 2 -2 3 -6 5 -10 1 -5 4
-15 8 -23 8 -22 50 -152 55 -170 3 -13 7 -90 15 -275 1 -37 9 -69 20 -85 9
-13 17 -34 17 -46 0 -17 5 -21 25 -19 32 4 37 -5 42 -74 3 -31 6 -68 7 -82 2
-22 37 -84 56 -99 7 -5 20 -48 26 -85 6 -32 12 -60 15 -60 1 0 3 -9 5 -20 13
-66 15 -97 9 -112 -4 -10 -9 -25 -10 -33 -1 -8 -6 -31 -10 -50 -5 -19 -8 -38
-7 -43 1 -4 -3 -7 -10 -7 -6 0 -9 -3 -5 -6 3 -4 0 -22 -8 -42 -11 -25 -12 -38
-4 -48 8 -10 3 -21 -19 -46 -17 -18 -39 -43 -50 -56 -11 -12 -30 -25 -42 -27
-31 -6 -87 -25 -130 -43 -19 -9 -39 -17 -45 -18 -31 -7 -40 -10 -45 -14 -3 -3
-25 -20 -49 -37 -24 -18 -50 -41 -57 -52 -13 -17 -11 -22 12 -40 22 -18 37
-19 137 -17 62 2 112 4 112 6 0 1 18 3 40 5 22 2 61 6 87 8 26 3 50 2 53 -3 3
-4 14 -6 25 -3 13 3 20 0 20 -8 0 -8 6 -3 13 11 7 13 30 33 52 45 22 11 46 25
52 32 15 13 49 10 46 -5 -3 -11 44 -11 62 -1 6 4 30 5 55 4 25 -1 50 3 56 7 7
5 16 8 20 7 19 -3 31 2 32 14 0 6 3 19 5 27 20 75 28 188 15 196 -5 3 -4 13 1
22 9 19 6 112 -5 152 -4 14 -6 31 -5 38 1 8 -2 19 -7 25 -5 7 -8 20 -7 29 2
10 -1 20 -5 23 -5 3 -7 11 -5 18 3 7 6 33 8 58 2 25 7 50 10 57 4 6 3 14 -3
17 -8 5 -7 11 1 21 6 8 9 23 6 33 -3 11 -1 21 5 23 12 4 16 210 5 263 -14 69
-17 89 -23 140 -9 74 -10 576 -2 581 6 4 39 -46 43 -66 1 -3 14 -30 28 -60 15
-30 27 -61 27 -67 0 -7 5 -13 10 -13 6 0 10 -9 10 -20 0 -11 5 -20 10 -20 6 0
10 -9 10 -20 0 -11 5 -20 11 -20 5 0 7 -5 4 -10 -3 -6 -1 -10 4 -10 6 0 10 -3
9 -7 -1 -5 6 -25 15 -47 9 -21 17 -42 17 -47 0 -5 5 -9 10 -9 6 0 10 -6 10
-12 0 -7 14 -40 30 -73 16 -33 30 -66 30 -72 0 -7 5 -13 11 -13 5 0 7 -4 4
-10 -3 -5 -1 -10 5 -10 6 0 8 -4 5 -10 -3 -5 -2 -10 3 -10 5 0 9 -6 9 -12 0
-7 4 -29 7 -48 9 -50 24 -139 30 -179 4 -29 37 -80 59 -89 4 -2 7 -10 7 -17 0
-7 4 -15 10 -17 5 -1 10 -43 11 -93 1 -50 7 -104 15 -122 7 -18 11 -33 8 -33
-3 0 1 -9 9 -21 13 -18 13 -26 -3 -70 -10 -27 -17 -49 -14 -49 2 0 -1 -12 -7
-27 -10 -28 -13 -76 -5 -108 2 -11 5 -20 6 -20 1 0 4 -16 6 -35 8 -60 10 -63
43 -46 l29 16 -2 -33 c-2 -33 26 -77 50 -77 15 0 24 -26 19 -60 -2 -14 -4 -25
-5 -25 -1 0 -4 -14 -6 -30 -3 -21 1 -37 15 -50 34 -34 49 -44 55 -38 3 4 6 2
6 -4 0 -10 28 -23 55 -27 6 -1 21 -8 35 -16 14 -8 53 -14 87 -15 61 0 62 0
108 50 65 69 77 98 57 139 -9 17 -19 33 -23 36 -4 3 -9 12 -11 20 -3 15 -58
70 -70 70 -33 1 -56 110 -23 110 8 0 15 6 16 13 0 6 2 35 4 64 1 28 6 56 9 62
4 5 -11 46 -33 89 -35 69 -48 122 -31 122 13 0 17 159 5 168 -6 4 -11 14 -11
22 0 8 -3 22 -6 30 -30 86 -30 94 -8 145 17 38 17 245 0 245 -3 0 -5 97 -5
215 0 118 4 215 9 215 5 0 3 6 -3 13 -6 8 -8 16 -5 19 3 3 5 52 5 109 0 57 5
123 10 147 5 23 12 59 15 78 3 20 7 45 9 56 6 28 67 97 83 92 6 -2 12 1 12 7
0 5 24 32 53 59 43 40 59 65 83 126 34 90 74 140 142 177 45 24 52 26 65 12
22 -21 33 -19 13 3 -15 18 -15 20 1 34 11 9 37 14 70 14 28 -1 51 1 50 4 -5
16 32 49 50 45 19 -3 28 4 32 28 4 25 101 84 115 69 9 -8 67 59 60 70 -3 4 9
16 25 26 17 9 34 25 37 35 3 9 9 17 13 17 3 0 7 8 7 18 1 9 4 35 8 57 13 73
14 90 4 102 -6 7 -7 13 -4 13 4 0 0 7 -9 16 -9 10 -13 24 -10 33 4 9 9 25 11
36 3 11 6 25 8 30 1 6 7 19 13 30 6 11 11 22 11 25 0 3 5 18 11 33 6 16 11 33
11 38 0 5 4 9 10 9 5 0 9 3 8 8 -1 4 2 27 7 52 11 58 12 111 3 117 -5 2 -8 13
-8 24 0 10 -5 19 -11 19 -5 0 -8 4 -4 9 6 10 -25 84 -37 89 -5 2 -4 11 1 21 6
10 6 23 1 31 -5 8 -6 18 -3 23 3 5 -4 17 -16 28 -15 15 -20 31 -19 62 1 48 -7
73 -36 104 -21 22 -30 102 -12 114 17 13 7 141 -15 180 -4 9 -5 19 -2 23 3 3
2 6 -3 6 -5 0 -11 24 -12 53 -4 93 -9 142 -15 162 -4 11 -8 36 -11 55 -5 44
-25 119 -37 142 -5 10 -9 23 -9 30 0 6 -8 20 -17 31 -17 18 -17 19 2 33 19 14
19 14 -1 16 -10 0 -27 1 -36 0 -10 -1 -18 3 -18 9 0 5 -4 8 -9 4 -5 -3 -13 0
-16 6 -4 5 -14 8 -22 5 -9 -4 -11 -2 -7 6 5 8 2 9 -9 5 -10 -3 -17 -2 -17 3 0
6 -15 17 -33 26 -19 9 -34 21 -34 28 -2 61 -26 122 -43 111 -5 -3 -11 -1 -14
4 -3 4 -18 9 -33 9 -15 0 -29 4 -31 10 -2 6 -9 9 -17 6 -7 -3 -29 1 -47 9 -18
8 -46 20 -63 27 -16 8 -32 14 -35 15 -3 0 -15 6 -26 13 -12 6 -24 8 -28 5 -3
-3 -6 -2 -6 4 0 5 -21 21 -47 34 -26 13 -66 41 -88 62 -22 20 -44 37 -48 37
-5 0 -5 5 -1 12 5 8 2 9 -10 5 -10 -4 -15 -3 -11 3 3 6 1 10 -4 10 -6 0 -11 8
-11 18 0 10 -5 23 -10 28 -6 6 -13 23 -16 39 -3 15 -9 36 -15 47 -5 10 -7 23
-4 28 3 6 1 10 -5 10 -6 0 -10 6 -9 13 4 30 -2 46 -19 51 -10 4 -19 13 -19 21
0 8 4 12 9 9 7 -5 12 10 9 29 -1 5 3 6 8 3 5 -4 14 2 20 11 6 10 11 14 11 9 0
-5 17 9 37 30 21 21 36 42 35 47 -1 4 3 7 9 7 12 0 33 19 39 35 5 15 30 38 31
28 0 -4 4 2 9 15 5 12 16 22 24 22 10 0 13 6 9 17 -5 12 -3 14 7 8 10 -6 12
-4 7 8 -4 12 -1 17 9 17 11 0 14 6 10 16 -3 8 -2 13 2 11 6 -4 39 24 35 30 -4
7 11 43 18 43 5 0 8 3 7 8 -1 8 9 38 21 62 4 8 7 23 5 33 -1 9 2 17 6 17 5 0
7 9 5 20 -2 11 0 20 4 20 4 0 8 14 9 31 0 17 7 38 14 47 11 13 11 15 -2 7 -12
-7 -13 -6 -3 6 7 9 15 32 17 53 7 50 14 60 34 44 12 -10 14 -10 8 0 -4 6 -2
12 3 12 6 0 11 -5 11 -12 0 -6 3 -9 6 -6 3 4 18 3 32 -2 19 -5 31 -3 40 7 7 7
16 12 20 9 4 -2 16 6 27 17 11 11 14 17 8 13 -16 -9 -17 10 -2 19 6 4 8 13 5
21 -3 8 -1 14 5 14 6 0 7 5 4 10 -3 6 1 17 9 25 8 9 13 21 10 28 -2 8 7 26 21
41 27 30 32 41 13 31 -7 -4 -4 1 6 9 11 9 16 16 10 16 -5 0 0 7 10 15 11 8 14
15 7 15 -7 0 -9 5 -6 10 4 6 11 8 16 5 5 -3 6 1 3 10 -4 8 -1 22 6 29 6 8 12
30 13 49 1 20 7 35 12 34 6 -1 9 4 7 12 -2 7 4 21 13 31 12 14 13 20 4 26 -8
5 -10 3 -4 -6 6 -9 4 -11 -5 -5 -11 7 -10 10 1 19 8 6 14 28 14 51 0 22 3 46
8 53 5 6 6 12 1 12 -5 0 -9 30 -9 68 0 38 -5 74 -12 82 -11 15 -13 20 -13 41
0 5 -4 7 -10 4 -5 -3 -10 0 -10 8 0 8 -7 18 -16 21 -10 4 -13 2 -8 -7 6 -9 4
-9 -7 -1 -18 14 -48 12 -79 -5 -24 -14 -24 -13 -10 5 14 18 14 18 -6 1 -13
-11 -28 -15 -39 -11 -11 5 -16 4 -12 -3 3 -5 0 -10 -7 -10 -17 0 -15 29 3 43
10 8 11 13 2 18 -6 4 -9 12 -5 17 3 5 5 61 4 124 -2 161 -4 185 -12 185 -4 0
-8 10 -8 23 0 12 -1 32 -1 45 0 12 -6 22 -12 22 -8 0 -7 4 2 9 13 8 13 12 0
27 -12 16 -12 17 1 9 12 -7 13 -6 4 6 -6 8 -11 27 -12 42 -1 15 -7 37 -13 49
-9 16 -8 19 2 13 8 -6 10 -4 3 6 -10 16 -15 35 -17 66 -1 12 -5 25 -9 29 -4 4
-2 14 5 22 6 9 8 13 2 10 -5 -3 -16 0 -23 8 -7 8 -8 14 -2 14 5 0 8 10 6 23
-2 12 -9 21 -16 19 -6 -1 -9 2 -5 8 3 5 1 10 -6 10 -7 0 -10 3 -6 6 3 3 -3 22
-13 42 -11 19 -17 39 -14 44 5 7 -10 12 -29 9 -5 -1 -6 8 -2 19 4 14 2 20 -9
20 -13 0 -33 35 -28 52 1 4 -5 5 -13 2 -8 -4 -15 -2 -15 2 0 5 -14 25 -30 44
-16 19 -30 39 -30 44 0 5 -10 18 -23 30 -13 12 -22 27 -19 34 2 7 -2 11 -9 10
-18 -4 -42 44 -26 54 9 6 8 8 -3 8 -12 1 -11 3 3 11 9 6 15 15 11 20 -4 6 -11
5 -21 -3 -12 -10 -15 -9 -12 7 3 23 -10 57 -25 67 -7 5 -7 8 2 8 15 0 8 10
-54 76 -23 24 -39 46 -36 49 3 3 0 5 -7 5 -16 0 -62 46 -54 54 4 3 -1 6 -10 6
-9 0 -17 4 -17 8 0 5 -6 9 -12 10 -23 2 -43 7 -55 15 -7 5 -17 5 -23 2 -5 -3
-10 0 -10 7 0 10 -2 10 -8 1 -10 -16 -44 39 -40 63 2 9 -4 18 -13 19 -11 2
-16 -3 -14 -14 4 -23 -6 -35 -16 -20 -7 11 -9 11 -9 1 0 -8 -5 -10 -12 -6 -17
11 -68 12 -62 2 7 -11 0 -10 -30 5 -14 8 -23 17 -19 20 3 4 1 7 -5 7 -7 0 -12
6 -12 14 0 8 -14 19 -30 25 -23 7 -29 7 -24 -1 5 -7 0 -9 -14 -6 -12 4 -25 2
-28 -3 -3 -5 -11 -9 -17 -9 -7 0 -6 4 3 10 11 7 5 10 -24 10 -32 0 -37 -3 -32
-17 6 -16 6 -16 -12 0 -10 9 -27 17 -38 17 -11 0 -26 6 -33 13 -11 10 -12 9
-6 -3 8 -13 6 -13 -7 -2 -17 14 -90 14 -82 0 8 -13 -11 -9 -25 5 -10 10 -11 9
-6 -5 5 -13 2 -16 -14 -13 -11 2 -23 0 -26 -6 -9 -14 -25 -11 -25 5 0 8 -8 13
-17 12 -10 -2 -21 4 -24 12 -6 18 -36 25 -45 11z m36 -5 c0 -8 -19 -13 -24 -6
-3 5 1 9 9 9 8 0 15 -2 15 -3z m425 -52 c-3 -3 -11 0 -18 7 -9 10 -8 11 6 5
10 -3 15 -9 12 -12z m-745 -127 c0 -2 -7 -5 -15 -9 -9 -3 -15 0 -15 9 0 9 6
12 15 9 8 -4 15 -7 15 -9z m-311 -311 c14 -12 -19 -1 -35 12 -18 14 -18 14 6
3 14 -6 27 -13 29 -15z m1867 -4730 c-3 -8 -2 -13 3 -10 5 3 23 -23 40 -58 27
-53 32 -73 30 -125 -1 -34 -6 -64 -11 -67 -4 -3 -6 -10 -3 -15 4 -5 1 -9 -4
-9 -6 0 -10 -5 -8 -11 1 -6 -14 -20 -33 -31 -42 -24 -54 -42 -55 -86 -1 -26 7
-42 38 -74 27 -28 36 -43 27 -48 -6 -4 -12 -11 -12 -16 -1 -13 -18 -54 -36
-89 -9 -16 -16 -32 -15 -35 0 -6 -15 -47 -31 -80 -18 -39 -41 -32 -40 13 0 20
-3 37 -6 37 -4 0 -7 17 -7 38 -1 20 -4 51 -7 67 -4 17 -8 54 -11 84 -2 29 -6
55 -8 58 -6 5 48 207 71 263 5 14 10 28 11 32 3 14 8 33 20 69 6 19 11 40 11
47 0 22 20 62 31 62 6 0 8 -7 5 -16z m-1967 -71 c1 -38 3 -48 14 -93 17 -67
35 -262 27 -290 -1 -3 -2 -41 -4 -85 -2 -44 -9 -111 -16 -148 -12 -61 -15 -66
-30 -52 -9 8 -19 13 -21 10 -3 -2 -6 6 -7 18 -5 37 -9 62 -12 65 -1 1 -4 11
-5 22 -1 11 -4 23 -5 28 -1 4 -2 10 -1 15 0 4 -3 7 -8 7 -5 0 -11 19 -15 43
-4 23 -9 51 -12 63 -4 15 1 23 19 31 16 8 27 25 34 51 11 43 3 67 -30 91 -20
15 -52 80 -43 89 3 3 1 11 -5 19 -6 7 -8 13 -4 13 4 0 2 7 -5 15 -9 10 -9 15
-1 15 6 0 11 6 11 13 0 7 8 20 18 29 9 9 30 32 47 52 35 40 51 34 54 -21z"/>
<path d="M4796 9981 c-3 -5 2 -15 12 -22 15 -12 16 -12 5 2 -7 9 -10 19 -6 22
3 4 4 7 0 7 -3 0 -8 -4 -11 -9z"/>
<path d="M4750 9959 c0 -5 5 -7 10 -4 6 3 10 8 10 11 0 2 -4 4 -10 4 -5 0 -10
-5 -10 -11z"/>
<path d="M6951 3967 c-5 -13 -17 -32 -27 -41 -14 -15 -15 -19 -3 -27 8 -5 15
-4 17 1 2 6 8 7 14 4 5 -4 8 4 6 17 -2 15 2 23 10 22 7 -2 12 7 12 22 0 32
-18 32 -29 2z"/>
</g>
</svg>
